<?xml version="1.0" encoding="utf-8"?>
<!-- Generator: Adobe Illustrator 26.3.1, SVG Export Plug-In . SVG Version: 6.00 Build 0)  -->
<svg version="1.1" id="Шар_1" xmlns="http://www.w3.org/2000/svg" xmlns:xlink="http://www.w3.org/1999/xlink" x="0px" y="0px"
	 viewBox="0 0 335.4 220.4" style="enable-background:new 0 0 335.4 220.4;" xml:space="preserve">
<style type="text/css">
	.st0{fill:#343434;}
</style>
<g>
	<path class="st0" d="M11.1,178.6c0.7,0,1.3,0.1,1.9,0.3c0.6,0.2,1.2,0.5,1.7,0.9s0.9,1,1.2,1.6c0.3,0.7,0.4,1.5,0.4,2.5v25.7
		c0,1-0.1,1.8-0.4,2.5c-0.3,0.7-0.7,1.2-1.2,1.6s-1,0.7-1.7,0.9c-0.6,0.2-1.3,0.3-1.9,0.3H5.7v-36.3H11.1z M13,184.6
		c0-0.6-0.1-1.1-0.4-1.5s-0.7-0.7-1.4-0.7H9.4v28.7h1.8c0.6,0,1.1-0.2,1.4-0.7s0.4-1,0.4-1.5V184.6z"/>
	<path class="st0" d="M34.3,214.8h-3.4c-0.2,0-0.3-0.1-0.3-0.3v-35.9h2.5c0.7,0,1.3,0.6,1.3,1.3v34.9H34.3z"/>
	<path class="st0" d="M53.6,194.4H60v15.2c0,1-0.2,1.8-0.5,2.5s-0.8,1.2-1.3,1.6c-0.6,0.4-1.2,0.7-1.9,0.9c-0.7,0.2-1.5,0.3-2.2,0.3
		c-0.8,0-1.5-0.1-2.2-0.3c-0.7-0.2-1.4-0.5-1.9-0.9c-0.6-0.4-1-1-1.4-1.6c-0.3-0.7-0.5-1.5-0.5-2.5v-26.2c0-1,0.2-1.8,0.5-2.5
		s0.8-1.2,1.4-1.6c0.6-0.4,1.2-0.7,1.9-0.9s1.5-0.3,2.2-0.3c0.8,0,1.5,0.1,2.2,0.3c0.7,0.2,1.4,0.5,1.9,0.9s1,1,1.3,1.6
		c0.3,0.7,0.5,1.5,0.5,2.5v6.5l-3.8,0.5v-6c0-0.6-0.2-1.1-0.5-1.5c-0.3-0.5-0.9-0.7-1.8-0.7c-0.9,0-1.5,0.2-1.8,0.7s-0.5,1-0.5,1.5
		v24.1c0,0.6,0.2,1.1,0.5,1.5c0.3,0.5,0.9,0.7,1.8,0.7c0.9,0,1.5-0.2,1.8-0.7s0.5-1,0.5-1.5v-9.9c0-0.3-0.1-0.6-0.2-0.9l-0.1-0.4
		c-0.4-0.5-0.9-1.4-1.3-2L53.6,194.4z"/>
	<path class="st0" d="M76.8,214.8H73v-36.2h3.8V214.8z"/>
	<path class="st0" d="M101.1,179.1l-0.9,2.7c-0.1,0.3-0.4,0.6-0.8,0.6h-4.1v32.5h-3.8v-32.5h-4.7v-2.8c0-0.6,0.5-1,1-1h12.8
		C101,178.6,101.2,178.8,101.1,179.1z"/>
	<path class="st0" d="M329.4,179.1l-0.9,2.7c-0.1,0.3-0.4,0.6-0.8,0.6h-4.1v32.5h-3.8v-32.5h-4.7v-2.8c0-0.6,0.5-1,1-1H329
		C329.3,178.6,329.5,178.8,329.4,179.1z"/>
	<path class="st0" d="M113.3,214.8h-3.8l5.3-36.2h2c0.6,0,1.2,0.5,1.3,1.1l5.3,35.2h-3.8l-3.1-25.6 M116.8,182.4H116"/>
	<path class="st0" d="M139.9,211h7.5c0.1,0,0.2,0.1,0.2,0.3l-0.9,2.2c-0.3,0.8-1.1,1.3-2,1.3h-8.6v-36.2h2.3c0.8,0,1.4,0.6,1.4,1.4
		v31H139.9z"/>
	<path class="st0" d="M185.7,178.6c1.4,0,2.5,0.3,3.3,0.8s1.3,1.1,1.7,1.7c0.4,0.7,0.6,1.6,0.7,2.5v9.3c-0.1,0.9-0.3,1.8-0.7,2.5
		c-0.4,0.7-0.9,1.3-1.7,1.8c-0.8,0.5-1.9,0.7-3.3,0.7H183v17h-2.7c-0.6,0-1.1-0.5-1.1-1.1v-35.2H185.7z M183,182.4v11.9h2.4
		c0.4,0,0.8-0.1,1.1-0.2c0.3-0.1,0.6-0.3,0.8-0.6s0.3-0.6,0.3-1.1v-8c0-0.5-0.1-0.9-0.3-1.1c-0.2-0.3-0.5-0.5-0.8-0.6
		s-0.7-0.2-1.1-0.2L183,182.4L183,182.4z"/>
	<path class="st0" d="M211.8,202.2c0-0.5-0.1-0.9-0.2-1.2c-0.2-0.3-0.4-0.6-0.7-0.8s-0.7-0.4-1.3-0.4h-2.4v15.1h-3.8v-36.3h6.4
		c1.4,0,2.5,0.3,3.3,0.9s1.3,1.3,1.7,2c0.4,0.9,0.6,1.8,0.7,2.9v8c0,1.3-0.1,2.3-0.4,3.2s-1,1.6-2.3,2.1v0.6c1.2,0.5,2,1.3,2.3,2.2
		c0.3,0.9,0.4,2,0.4,3.2v11.2h-3.8L211.8,202.2L211.8,202.2z M209.6,195.9c0.4,0,0.8-0.1,1.1-0.3c0.3-0.2,0.6-0.4,0.8-0.8
		c0.2-0.3,0.3-0.8,0.3-1.4v-8.7c0-0.6-0.1-1.1-0.3-1.4c-0.2-0.3-0.5-0.6-0.8-0.8c-0.3-0.2-0.7-0.3-1.1-0.3h-2.4v13.5h2.4V195.9z"/>
	<path class="st0" d="M234.4,178.1c0.8,0,1.5,0.1,2.2,0.3s1.4,0.5,1.9,0.9c0.6,0.4,1,1,1.4,1.6c0.3,0.7,0.5,1.5,0.5,2.5v26.2
		c0,1-0.2,1.8-0.5,2.5s-0.8,1.2-1.4,1.6s-1.2,0.7-1.9,0.9c-0.7,0.2-1.5,0.3-2.2,0.3c-0.8,0-1.5-0.1-2.2-0.3
		c-0.7-0.2-1.4-0.5-1.9-0.9c-0.6-0.4-1-1-1.3-1.6c-0.3-0.7-0.5-1.5-0.5-2.5v-26.2c0-1,0.2-1.8,0.5-2.5s0.8-1.2,1.3-1.6
		c0.6-0.4,1.2-0.7,1.9-0.9S233.6,178.1,234.4,178.1z M234.4,210.7c0.9,0,1.5-0.2,1.8-0.7s0.5-1,0.5-1.5v-24.1c0-0.6-0.2-1.1-0.5-1.5
		c-0.3-0.5-0.9-0.7-1.8-0.7s-1.5,0.2-1.8,0.7s-0.5,1-0.5,1.5v24.1c0,0.6,0.2,1.1,0.5,1.5C232.9,210.5,233.5,210.7,234.4,210.7z"/>
	<path class="st0" d="M255,208.5c0,0.6,0.2,1.1,0.5,1.5s0.9,0.7,1.8,0.7s1.5-0.2,1.8-0.7s0.5-1,0.5-1.5v-30.2h2.5
		c0.7,0,1.2,0.6,1.2,1.2v30c0,1-0.2,1.8-0.5,2.5s-0.8,1.2-1.3,1.6c-0.6,0.4-1.2,0.7-2,0.9c-0.7,0.2-1.5,0.3-2.3,0.3
		s-1.6-0.1-2.3-0.3s-1.3-0.5-1.9-0.9s-1-1-1.3-1.6c-0.3-0.7-0.5-1.5-0.5-2.5v-0.9c0-0.9,0.4-1.8,1.2-2.4l1.9-1.6
		c0.3-0.2,0.7,0,0.7,0.3L255,208.5L255,208.5z"/>
	<path class="st0" d="M276.9,198.4V211h7.5c0.2,0,0.3,0.2,0.2,0.4l-1.3,2.2c-0.4,0.7-1.2,1.2-2.1,1.2H273v-36.2h10.8
		c0.2,0,0.4,0.3,0.3,0.5l-1.3,2.2c-0.4,0.7-1.2,1.2-2,1.2h-4v12.1h5.4c0.2,0,0.3,0.2,0.3,0.4l-0.8,2c-0.3,0.8-1.1,1.4-2,1.4H276.9z"
		/>
	<path class="st0" d="M300.4,214.8c-0.8,0-1.5-0.1-2.2-0.3c-0.7-0.2-1.4-0.5-1.9-0.9c-0.6-0.4-1-1-1.3-1.6c-0.3-0.7-0.5-1.5-0.5-2.5
		v-26.2c0-1,0.2-1.8,0.5-2.5s0.8-1.2,1.3-1.6c0.6-0.4,1.2-0.7,1.9-0.9s1.5-0.3,2.2-0.3c0.8,0,1.5,0.1,2.2,0.3
		c0.7,0.2,1.4,0.5,1.9,0.9s1,1,1.3,1.6c0.3,0.7,0.5,1.5,0.5,2.5v6.2c0,0.7-0.5,1.4-1.2,1.6l-2,0.6c-0.3,0.1-0.6-0.1-0.6-0.4v-6.9
		c0-0.6-0.2-1.1-0.5-1.5c-0.3-0.5-0.9-0.7-1.8-0.7s-1.5,0.2-1.8,0.7s-0.5,1-0.5,1.5v24.1c0,0.6,0.2,1.1,0.5,1.5
		c0.3,0.5,0.9,0.7,1.8,0.7s1.5-0.2,1.8-0.7s0.5-1,0.5-1.5v-4.2c0-0.8,0.4-1.5,1.1-1.9l2.2-1.2c0.2-0.1,0.4,0,0.4,0.2v8.1
		c0,1-0.2,1.8-0.5,2.5s-0.8,1.2-1.3,1.6s-1.2,0.7-1.9,0.9C301.9,214.7,301.2,214.8,300.4,214.8z"/>
</g>
<g>
	<path class="st0" d="M215.4,108.8l6.4,14.8c1.2,2.7,4.5,4,7.3,2.9c2.9-1.1,4.2-4.3,3-7l-6.4-14.8
		C225.8,104.7,215.4,108.8,215.4,108.8z"/>
	<path class="st0" d="M219.7,118.7l10.3-4.1L219.7,118.7L219.7,118.7z M201.9,77.5l14.6,5.8C216.5,83.3,201.9,77.5,201.9,77.5z
		 M209.8,47.5c0,7.9-6.7,14.3-14.9,14.3c-8.2,0-14.9-6.4-14.9-14.3s6.7-14.3,14.9-14.3C203.2,33.2,209.8,39.6,209.8,47.5z"/>
	<path class="st0" d="M202.4,47.5c0,3.9-3.3,7.1-7.5,7.1c-4.1,0-7.5-3.2-7.5-7.1s3.3-7.1,7.5-7.1C199,40.3,202.4,43.5,202.4,47.5
		L202.4,47.5z M184.5,57.6l-20.4,47.1l-5.1,21.1l3.4,1.4l12-18.4l2.9-6.6c-2.2-5.2,0.3-11.1,5.7-13.2l11.8-27.3
		C191,61.7,187.3,60.3,184.5,57.6L184.5,57.6z M205.4,57.6c-2.7,2.5-6.3,4.1-10.3,4.1l17.6,40.5l10.3-4.1L205.4,57.6L205.4,57.6z
		 M200.5,26.1V10c0-3-2.5-5.4-5.6-5.4s-5.6,2.4-5.6,5.4v16.1H200.5z M194.9,33.2c1,0,1.9,0.1,2.8,0.3v-7.4h-5.6v7.4
		C193,33.3,194,33.2,194.9,33.2L194.9,33.2z M117.3,133.1H98.7V4.7h18.6c4.1,0,7.4,3.2,7.4,7.1V126
		C124.7,129.9,121.4,133.1,117.3,133.1L117.3,133.1z"/>
	<path class="st0" d="M116.3,15.4c1.5,0,2.8-1.2,2.8-2.7l0,0c0-1.5-1.3-2.7-2.8-2.7s-2.8,1.2-2.8,2.7l0,0
		C113.5,14.2,114.8,15.4,116.3,15.4z M137.7,80.5c0,1.5,1.2,2.7,2.8,2.7s2.8-1.2,2.8-2.7c0,1.5-1.3,2.7-2.8,2.7S137.8,82,137.7,80.5
		L137.7,80.5z"/>
	<path class="st0" d="M141.4,4.7c-2.1,0-3.7,1.6-3.7,3.6v74.9l5.6,21.4l5.6-21.4V8.3c0-2-1.7-3.6-3.7-3.6H141.4z"/>
</g>
</svg>
